<svg xmlns="http://www.w3.org/2000/svg" version="1.1" xmlns:xlink="http://www.w3.org/1999/xlink" xmlns:svgjs="http://svgjs.dev/svgjs" width="1000" height="623" viewBox="0 0 1000 623"><g transform="matrix(1,0,0,1,-0.6060606060606233,0.2522267206477409)"><svg viewBox="0 0 396 247" data-background-color="#282634" preserveAspectRatio="xMidYMid meet" height="623" width="1000" xmlns="http://www.w3.org/2000/svg" xmlns:xlink="http://www.w3.org/1999/xlink"><g id="tight-bounds" transform="matrix(1,0,0,1,0.2400000000000091,-0.09999999999999432)"><svg viewBox="0 0 395.52 247.2" height="247.2" width="395.52"><g><svg></svg></g><g><svg viewBox="0 0 395.52 247.2" height="247.2" width="395.52"><g transform="matrix(1,0,0,1,127.11522935779816,37.08)"><svg viewBox="0 0 141.28954128440367 173.04" height="173.04" width="141.28954128440367"><g><svg viewBox="0 0 141.28954128440367 173.04" height="173.04" width="141.28954128440367"><g><svg viewBox="0 0 141.28954128440367 173.04" height="173.04" width="141.28954128440367"><g><svg viewBox="0 0 141.28954128440367 173.04" height="173.04" width="141.28954128440367"><g id="textblocktransform"><svg viewBox="0 0 141.28954128440367 173.04" height="173.04" width="141.28954128440367" id="textblock"><g><svg viewBox="0 0 141.28954128440367 173.04" height="173.04" width="141.28954128440367"><g transform="matrix(1,0,0,1,0,0)"><svg width="141.28954128440367" viewBox="-5.5 -39 45.5 55.5" height="173.04" data-palette-color="#ff4057"><path d="M3.9 0L3.9-32.25 0.15-32.25 0.15-35 10.25-35 10.25-32.25 7.3-32.25 7.3 0Q7.45 6 0.1 12.4L0.1 12.4-1.5 10.45Q0.6 8.45 2.27 5.65 3.95 2.85 3.9 0L3.9 0ZM16.1-22.5L12.75-22.5 12.75-25 19.35-25 19.35-23.15Q22.5-25.45 26.05-25.45L26.05-25.45Q29.45-25.45 32.45-23.35L32.45-23.35Q34.05-22.2 35.02-19.75 36-17.3 36-13.8L36-13.8Q36-7.15 32.7-3.8L32.7-3.8Q28.95 0 23 0L23 0Q21.25 0 19.35-0.25L19.35-0.25 19.35 10 23.6 10 23.6 12.5 13 12.5 13 10 16.1 10 16.1-22.5ZM19.35-21.1L19.35-21.1 19.35-2.8Q20.8-2.45 22.5-2.45L22.5-2.45Q27.45-2.45 30.1-5.35 32.75-8.25 32.75-13.55L32.75-13.55Q32.75-19.7 29.15-21.6L29.15-21.6Q27.4-22.55 25.1-22.55 22.8-22.55 19.35-21.1Z" opacity="1" transform="matrix(1,0,0,1,0,0)" fill="#ff4057" class="undefined-text-0" data-fill-palette-color="primary" id="text-0"></path></svg></g></svg></g></svg></g></svg></g></svg></g></svg></g></svg></g><g mask="url(#b737b4b5-ca44-4a10-bfde-227578a35ea0)"><g transform="matrix(3.42505954103845, 0, 0, 3.42505954103845, 126.62151829754619, 1)"><svg xmlns="http://www.w3.org/2000/svg" data-name="Layer 1" viewBox="22.729999542236328 6 41.53999710083008 71.58999633789062" x="0" y="0" height="71.58999633789062" width="41.53999710083008" class="icon-none" data-fill-palette-color="accent" id="none"><path d="M43.5 77.59L22.73 51.31 43.5 6 64.27 51.31ZM25.64 51L43.5 73.56 61.36 51 43.5 12Z" fill="#dcdcdc" data-fill-palette-color="accent"></path><path d="M57.88 52.14a1 1 0 0 1-1-1 1 1 0 0 1 0.07-0.38 0.84 0.84 0 0 1 0.22-0.33 1 1 0 0 1 1.41 0 0.83 0.83 0 0 1 0.22 0.33 1 1 0 0 1 0.08 0.38 1 1 0 0 1-1 1Z" fill="#dcdcdc" data-fill-palette-color="accent"></path><path d="M52.13 51.14a1 1 0 0 1 1-1h0a1 1 0 0 1 1 1h0a1 1 0 0 1-1 1h0A1 1 0 0 1 52.13 51.14Z" fill="#dcdcdc" data-fill-palette-color="accent"></path><path d="M47.4 51.14a1 1 0 0 1 1-1h0a1 1 0 0 1 1 1h0a1 1 0 0 1-1 1h0A1 1 0 0 1 47.4 51.14Z" fill="#dcdcdc" data-fill-palette-color="accent"></path><path d="M42.66 51.14a1 1 0 0 1 1-1h0a1 1 0 0 1 1 1h0a1 1 0 0 1-1 1h0A1 1 0 0 1 42.66 51.14Z" fill="#dcdcdc" data-fill-palette-color="accent"></path><path d="M37.92 51.14a1 1 0 0 1 1-1h0a1 1 0 0 1 1 1h0a1 1 0 0 1-1 1h0A1 1 0 0 1 37.92 51.14Z" fill="#dcdcdc" data-fill-palette-color="accent"></path><path d="M33.18 51.14a1 1 0 0 1 1-1h0a1 1 0 0 1 1 1h0a1 1 0 0 1-1 1h0A1 1 0 0 1 33.18 51.14Z" fill="#dcdcdc" data-fill-palette-color="accent"></path><path d="M29.44 52.14a1 1 0 0 1-0.71-0.29 1 1 0 0 1-0.29-0.71 1 1 0 0 1 0.07-0.38 1 1 0 0 1 0.22-0.33 1 1 0 0 1 1.42 0 0.94 0.94 0 0 1 0.21 0.33 1 1 0 0 1 0.08 0.38 1 1 0 0 1-1 1Z" fill="#dcdcdc" data-fill-palette-color="accent"></path></svg></g></g><mask id="b737b4b5-ca44-4a10-bfde-227578a35ea0"><rect width="640" height="400" fill="white"></rect><g transform="matrix(1,0,0,1,127.11522935779816,37.08)"><svg viewBox="0 0 141.28954128440367 173.04" height="173.04" width="141.28954128440367"><g><svg viewBox="0 0 141.28954128440367 173.04" height="173.04" width="141.28954128440367"><g><svg viewBox="0 0 141.28954128440367 173.04" height="173.04" width="141.28954128440367"><g><svg viewBox="0 0 141.28954128440367 173.04" height="173.04" width="141.28954128440367"><g id="SvgjsG4346"><svg viewBox="0 0 141.28954128440367 173.04" height="173.04" width="141.28954128440367" id="SvgjsSvg4345"><g><svg viewBox="0 0 141.28954128440367 173.04" height="173.04" width="141.28954128440367"><g transform="matrix(1,0,0,1,0,0)"><svg width="141.28954128440367" viewBox="-5.5 -39 45.5 55.5" height="173.04" data-palette-color="#ff4057"><path d="M3.9 0L3.9-32.25 0.15-32.25 0.15-35 10.25-35 10.25-32.25 7.3-32.25 7.3 0Q7.45 6 0.1 12.4L0.1 12.4-1.5 10.45Q0.6 8.45 2.27 5.65 3.95 2.85 3.9 0L3.9 0ZM16.1-22.5L12.75-22.5 12.75-25 19.35-25 19.35-23.15Q22.5-25.45 26.05-25.45L26.05-25.45Q29.45-25.45 32.45-23.35L32.45-23.35Q34.05-22.2 35.02-19.75 36-17.3 36-13.8L36-13.8Q36-7.15 32.7-3.8L32.7-3.8Q28.95 0 23 0L23 0Q21.25 0 19.35-0.25L19.35-0.25 19.35 10 23.6 10 23.6 12.5 13 12.5 13 10 16.1 10 16.1-22.5ZM19.35-21.1L19.35-21.1 19.35-2.8Q20.8-2.45 22.5-2.45L22.5-2.45Q27.45-2.45 30.1-5.35 32.75-8.25 32.75-13.55L32.75-13.55Q32.75-19.7 29.15-21.6L29.15-21.6Q27.4-22.55 25.1-22.55 22.8-22.55 19.35-21.1Z" opacity="1" transform="matrix(1,0,0,1,0,0)" fill="#ff4057" class="undefined-text-0" data-fill-palette-color="primary" id="SvgjsPath4344" stroke-width="7" stroke="black" stroke-linejoin="round"></path></svg></g></svg></g></svg></g></svg></g></svg></g></svg></g></svg></g></mask></svg></g><defs></defs></svg><rect width="395.52" height="247.2" fill="none" stroke="none" visibility="hidden"></rect></g></svg></g></svg>